<?xml version="1.0" standalone="no"?>
<!DOCTYPE svg PUBLIC "-//W3C//DTD SVG 20010904//EN"
 "http://www.w3.org/TR/2001/REC-SVG-20010904/DTD/svg10.dtd">
<svg version="1.0" xmlns="http://www.w3.org/2000/svg"
 width="120.000000pt" height="120.000000pt" viewBox="0 0 120.000000 120.000000"
 preserveAspectRatio="xMidYMid meet">
<metadata>
Created by potrace 1.14, written by Peter Selinger 2001-2017
</metadata>
<g transform="translate(0.000000,120.000000) scale(0.100000,-0.100000)"
fill="#000000" stroke="none">
<path d="M910 1178 c0 -5 -5 -8 -10 -8 -25 0 -80 -65 -100 -121 -12 -32 -26
-59 -30 -59 -3 0 -7 -6 -7 -12 -1 -24 -89 -218 -96 -211 -4 3 -7 2 -7 -4 0 -7
-31 -11 -82 -11 -96 -1 -141 6 -133 19 4 5 -1 6 -10 3 -18 -7 -55 30 -55 57 0
9 -4 19 -10 21 -5 2 -21 48 -35 103 -46 177 -54 202 -67 203 -128 12 -185 2
-206 -38 -10 -19 -12 -78 -10 -240 2 -118 -1 -357 -6 -530 -8 -288 -7 -316 8
-329 19 -16 234 -27 254 -13 29 20 39 84 40 249 2 183 10 219 52 216 14 -1 83
-6 155 -10 l130 -8 3 -95 c7 -211 10 -256 16 -290 16 -76 -3 -70 209 -70 106
0 198 4 205 8 28 18 32 88 32 580 0 431 -2 507 -15 532 -9 17 -19 30 -24 30
-5 0 -11 8 -14 19 -4 17 -14 19 -96 18 -50 -1 -91 -5 -91 -9z"/>
</g>
</svg>
