<?xml version="1.0" encoding="UTF-8" standalone="no"?> <svg id="Capa_1" enable-background="new 0 0 512 512" height="512" viewBox="0 0 512 512" width="512" xmlns="http://www.w3.org/2000/svg"><g><path d="m420.74 172.875c0-65.103-61.541-117.879-137.456-117.879s-137.454 52.776-137.454 117.879c0 21.093 6.463 40.891 17.779 58.02 2.693 4.076 1.08 9.6-3.351 11.659-31.44 14.611-61.875 30.105-104.101 17.844-32.023-9.298-62.109 19.462-55.144 52.072 17.213 80.593 87.749 144.534 229.264 144.534 76.037 0 137.677-43.763 137.677-111.457 0-21.79-6.393-42.249-17.593-59.979-2.487-3.938-1.029-9.214 3.12-11.331 40.273-20.554 67.259-58.254 67.259-101.362z" fill="#f7e969"/><path d="m314.404 435.639c-165.505-34.346-168.539-151.089-156.151-192.151-30.735 14.324-60.768 28.91-102.095 16.91-32.024-9.298-62.11 19.462-55.145 52.072 17.213 80.593 87.749 144.534 229.264 144.534 31.683.001 60.861-7.603 84.127-21.365z" fill="#f5c956"/><path d="m467.359 176.189c-15.81-6.432-30.878-13.986-40.888-21.515-7.819-5.881-18.4-6.849-26.873-1.958-20.749 11.979-31.227 32.461-26.715 49.628 6.337 24.111 47.836 33.766 93.109 18.235 20.699-7.102 21.638-36.143 1.367-44.39z" fill="#ffb25a"/><path d="m201.939 281.89c-34.857 26.607-22.159 106.577 69.571 82.223 10.39-9.918 16.874-23.893 16.874-39.391 0-30.08-24.385-54.465-54.465-54.465-10.407 0-20.543 5.338-31.98 11.633z" fill="#ffb25a"/><path d="m201.94 281.89c-12.592 6.931-26.761 15.022-44.62 18.431-21.86 4.174-29.234 31.858-12.425 46.443 29.661 25.736 68.389 32.422 89.026 32.422 14.582 0 27.814-5.742 37.59-15.073-79.839 4.396-83.85-56.952-69.571-82.223z" fill="#ff8b43"/><path d="m81.475 111.736c-14.037-15.632-38.309-17.258-53.2-2.437-14.147 14.081-14.167 36.963-.061 51.069 8.168 8.168 19.935 16.671 29.514 31.014 9.342 13.988 30.815 10.515 35.169-5.732 7.317-27.308 6.117-54.38-11.422-73.914z" fill="#59d5ff"/><path d="m472.658 270.313c20.979-1.129 39.293 14.885 39.342 35.895.047 19.96-16.12 36.155-36.068 36.155-11.551 0-25.884-2.308-42.8 1.061-16.496 3.285-29.224-14.354-20.815-28.921 14.135-24.485 34.127-42.78 60.341-44.19z" fill="#59d5ff"/><g><ellipse cx="318.179" cy="174.702" fill="#ffa1ac" rx="29.794" ry="23.726"/><path d="m349.725 156.384c-4.143 0-7.5-3.358-7.5-7.5 0-3.684-2.997-6.681-6.682-6.681s-6.682 2.997-6.682 6.681c0 4.142-3.357 7.5-7.5 7.5-4.142 0-7.5-3.358-7.5-7.5 0-11.955 9.727-21.681 21.682-21.681s21.682 9.726 21.682 21.681c0 4.142-3.358 7.5-7.5 7.5z" fill="#425460"/></g><g fill="#00c4fc"><path d="m457.49 273.172c-18.903 6.231-33.902 21.807-45.173 41.33-8.41 14.567 4.318 32.206 20.815 28.921 16.915-3.369 31.249-1.061 42.8-1.061 8.275 0 15.893-2.793 21.979-7.479-47.607.837-53.234-46.633-40.421-61.711z"/><path d="m57.728 191.383c9.342 13.988 30.815 10.515 35.169-5.732 1.288-4.806 2.305-9.604 3.023-14.356-44.09-1.868-63.195-55.47-52.578-70.853-5.5 1.577-10.689 4.501-15.066 8.857-14.146 14.081-14.167 36.963-.061 51.069 8.167 8.168 19.934 16.672 29.513 31.015z"/></g></g></svg>