<?xml version="1.0" encoding="iso-8859-1"?>
<!-- Generator: Adobe Illustrator 19.0.0, SVG Export Plug-In . SVG Version: 6.00 Build 0)  -->
<svg version="1.1" id="Capa_1" xmlns="http://www.w3.org/2000/svg" xmlns:xlink="http://www.w3.org/1999/xlink" x="0px" y="0px"
	 viewBox="0 0 512 512" style="enable-background:new 0 0 512 512;" xml:space="preserve">
<circle style="fill:#FFD15C;" cx="256" cy="256" r="197.333"/>
<circle style="fill:#F3705A;" cx="256" cy="256" r="197.333"/>
<circle style="fill:#FFFFFF;" cx="256" cy="256" r="142.933"/>
<circle style="fill:#F3705A;" cx="256" cy="256" r="97.067"/>
<path style="fill:#FFFFFF;" d="M196.267,249.6c0,38.4,59.733,69.333,59.733,69.333S315.733,288,315.733,249.6
	c0-17.067-13.867-30.933-30.933-30.933c-12.8,0-24.533,7.467-28.8,19.2c-4.267-11.733-16-19.2-28.8-19.2
	C210.133,217.6,196.267,232.533,196.267,249.6z"/>
<g>
	<path style="fill:#415A6B;" d="M256,469.333c-117.333,0-213.333-96-213.333-213.333S138.667,42.667,256,42.667
		s213.333,96,213.333,213.333S373.333,469.333,256,469.333z M256,74.667C155.733,74.667,74.667,155.733,74.667,256
		S155.733,437.333,256,437.333S437.333,356.267,437.333,256S356.267,74.667,256,74.667z"/>
	<path style="fill:#415A6B;" d="M256,125.867c-8.533,0-16-7.467-16-16V16c0-8.533,7.467-16,16-16s16,7.467,16,16v94.933
		C272,119.467,264.533,125.867,256,125.867z"/>
	<path style="fill:#415A6B;" d="M110.933,272H16c-8.533,0-16-7.467-16-16s7.467-16,16-16h94.933c8.533,0,16,7.467,16,16
		C125.867,264.533,119.467,272,110.933,272z"/>
	<path style="fill:#415A6B;" d="M256,512c-8.533,0-16-7.467-16-16v-94.933c0-8.533,7.467-16,16-16s16,7.467,16,16V496
		C272,504.533,264.533,512,256,512z"/>
	<path style="fill:#415A6B;" d="M496,272h-94.933c-8.533,0-16-7.467-16-16s7.467-16,16-16H496c8.533,0,16,7.467,16,16
		S504.533,272,496,272z"/>
</g>
<g>
</g>
<g>
</g>
<g>
</g>
<g>
</g>
<g>
</g>
<g>
</g>
<g>
</g>
<g>
</g>
<g>
</g>
<g>
</g>
<g>
</g>
<g>
</g>
<g>
</g>
<g>
</g>
<g>
</g>
</svg>
